<?xml version="1.0" ?>
<mxfile host="app.diagrams.net" modified="2025-04-23T00:00:00.000Z">
  <diagram name="HE2AT Cloud Data Flow">
    <mxGraphModel>
      <root>
        <mxCell id="0"/>
        <mxCell id="1" parent="0"/>
        <mxCell id="2" value="Data Providers" style="rounded=1;whiteSpace=wrap;html=1;fillColor=#f0f0f0;strokeColor=#666666" vertex="1" parent="1">
          <mxGeometry x="320" y="20" width="180" height="40" as_="geometry"/>
        </mxCell>
        <mxCell id="3" value="Core Data Team (UCT)" style="rounded=1;whiteSpace=wrap;html=1;fillColor=#dae8fc;strokeColor=#6c8ebf" vertex="1" parent="1">
          <mxGeometry x="320" y="100" width="180" height="40" as_="geometry"/>
        </mxCell>
        <mxCell id="4" value="Azure Cloud Platform" style="rounded=1;whiteSpace=wrap;html=1;fillColor=#d5e8d4;strokeColor=#82b366" vertex="1" parent="1">
          <mxGeometry x="320" y="180" width="180" height="40" as_="geometry"/>
        </mxCell>
        <mxCell id="5" value="WHC (Level 1)" style="rounded=1;whiteSpace=wrap;html=1;fillColor=#ffe6cc;strokeColor=#d79b00" vertex="1" parent="1">
          <mxGeometry x="520" y="110" width="180" height="40" as_="geometry"/>
        </mxCell>
        <mxCell id="6" value="CeSHHAR (Level 1)" style="rounded=1;whiteSpace=wrap;html=1;fillColor=#fff2cc;strokeColor=#d6b656" vertex="1" parent="1">
          <mxGeometry x="520" y="180" width="180" height="40" as_="geometry"/>
        </mxCell>
        <mxCell id="7" value="IBM Africa (Level 1)" style="rounded=1;whiteSpace=wrap;html=1;fillColor=#e1d5e7;strokeColor=#9673a6" vertex="1" parent="1">
          <mxGeometry x="520" y="250" width="180" height="40" as_="geometry"/>
        </mxCell>
        <mxCell id="8" value="UPGC (Level 1)" style="rounded=1;whiteSpace=wrap;html=1;fillColor=#d5e8d4;strokeColor=#82b366" vertex="1" parent="1">
          <mxGeometry x="520" y="320" width="180" height="40" as_="geometry"/>
        </mxCell>
        <mxCell id="9" value="External Researchers (Level 2)" style="rounded=1;whiteSpace=wrap;html=1;fillColor=#f8cecc;strokeColor=#b85450" vertex="1" parent="1">
          <mxGeometry x="520" y="390" width="180" height="40" as_="geometry"/>
        </mxCell>
        <mxCell id="10" value="Original Study Data (Level 0)" style="endArrow=block;html=1;fontSize=12;" edge="1" parent="1" source="2" target="3">
          <mxGeometry relative="1" as_="geometry"/>
        </mxCell>
        <mxCell id="11" value="Harmonised + De-identified Data by Region" style="endArrow=block;html=1;fontSize=12;" edge="1" parent="1" source="3" target="4">
          <mxGeometry relative="1" as_="geometry"/>
        </mxCell>
        <mxCell id="12" value="" style="endArrow=block;html=1;" edge="1" parent="1" source="4" target="5">
          <mxGeometry relative="1" as_="geometry"/>
        </mxCell>
        <mxCell id="13" value="" style="endArrow=block;html=1;" edge="1" parent="1" source="4" target="6">
          <mxGeometry relative="1" as_="geometry"/>
        </mxCell>
        <mxCell id="14" value="" style="endArrow=block;html=1;" edge="1" parent="1" source="4" target="7">
          <mxGeometry relative="1" as_="geometry"/>
        </mxCell>
        <mxCell id="15" value="" style="endArrow=block;html=1;" edge="1" parent="1" source="4" target="8">
          <mxGeometry relative="1" as_="geometry"/>
        </mxCell>
        <mxCell id="16" value="DAC-approved access to fully de-identified data" style="dashed=1;endArrow=block;html=1;fontSize=12;" edge="1" parent="1" source="4" target="9">
          <mxGeometry relative="1" as_="geometry"/>
        </mxCell>
      </root>
    </mxGraphModel>
  </diagram>
</mxfile>
